<?xml version="1.0" encoding="UTF-8"?><svg id="Layer_1" xmlns="http://www.w3.org/2000/svg" viewBox="0 0 271.34 271.54"><defs><style>.cls-1{fill:#f6ae2d;}</style></defs><path class="cls-1" d="m205.82,125c31.72,0,57.52,25.8,57.52,57.52v54.03c0,1.92-1.56,3.49-3.49,3.49h-108.07c-1.92,0-3.49-1.56-3.49-3.49v-54.03c0-31.72,25.8-57.52,57.52-57.52m-5.09,69.09h39.6c6.43,0,11.66-5.18,11.66-11.55v-14.14c0-16.95-14.11-30.74-31.46-30.74s-31.46,13.79-31.46,30.74v14.14c0,6.37,5.23,11.55,11.66,11.55m5.09-77.09h0c-36.19,0-65.52,29.33-65.52,65.52v54.03c0,6.34,5.14,11.49,11.49,11.49h108.07c6.34,0,11.49-5.14,11.49-11.49v-54.03c0-36.19-29.33-65.52-65.52-65.52h0Zm-5.09,69.09c-2.02,0-3.66-1.59-3.66-3.55v-14.14c0-12.56,10.5-22.74,23.46-22.74h0c12.96,0,23.46,10.18,23.46,22.74v14.14c0,1.96-1.64,3.55-3.66,3.55h-39.6Z"/><path class="cls-1" d="m120.24,8c31.72,0,57.52,25.8,57.52,57.52s-25.8,57.52-57.52,57.52h-54.03c-1.92,0-3.49-1.56-3.49-3.49V11.49c0-1.92,1.56-3.49,3.49-3.49h54.03m-4.93,78.65h12.95c15.9,0,28.83-12.93,28.83-28.83s-12.93-28.83-28.83-28.83h-12.95c-6.2,0-11.25,5.05-11.25,11.25v35.15c0,6.2,5.05,11.25,11.25,11.25M120.24,0h-54.03c-6.34,0-11.49,5.14-11.49,11.49v108.07c0,6.34,5.14,11.49,11.49,11.49h54.03c36.19,0,65.52-29.33,65.52-65.52h0C185.76,29.33,156.43,0,120.24,0h0Zm-4.93,78.65c-1.8,0-3.25-1.46-3.25-3.25v-35.15c0-1.8,1.46-3.25,3.25-3.25h12.95c11.5,0,20.83,9.33,20.83,20.83h0c0,11.5-9.33,20.83-20.83,20.83h-12.95Z"/><path class="cls-1" d="m65.52,148.5c31.72,0,57.52,25.8,57.52,57.52v54.03c0,1.92-1.56,3.49-3.49,3.49H11.49c-1.92,0-3.49-1.56-3.49-3.49v-54.03c0-31.72,25.8-57.52,57.52-57.52m-33.73,105.72h.04s.03,0,.03,0l38.26-.25c6.36-.04,11.5-5.63,11.46-12.45l-.11-17.43c-.13-19.76-13.91-35.83-30.72-35.83h-.18c-16.91.11-30.56,16.36-30.43,36.23l.11,17.43c.04,6.78,5.22,12.3,11.55,12.3m33.73-113.72h0C29.33,140.5,0,169.83,0,206.02v54.03c0,6.34,5.14,11.49,11.49,11.49h108.07c6.34,0,11.49-5.14,11.49-11.49v-54.03c0-36.19-29.33-65.52-65.52-65.52h0Zm-33.73,105.72c-1.95,0-3.53-1.94-3.55-4.35l-.11-17.43c-.1-15.48,9.97-28.1,22.48-28.18h0s.08,0,.12,0c12.46,0,22.63,12.45,22.73,27.88l.11,17.43c.02,2.42-1.56,4.39-3.51,4.4l-38.26.25s-.01,0-.02,0h0Z"/></svg>